<svg width="12" height="16" viewBox="0 0 12 16" fill="none">
<path fill-rule="evenodd" clip-rule="evenodd" d="M0.321665 9.70814C0.126617 10.2061 0.0176517 10.7373 0 11.2763C0.026916 11.6088 0.133599 11.9283 0.309855 12.2044C0.641512 12.6125 1.04036 12.9529 1.48686 13.2091L4.37059 15.2494C4.72543 15.5495 5.12444 15.7853 5.55153 15.9474C5.82883 16.0175 6.11775 16.0175 6.39505 15.9474C6.82499 15.7873 7.2272 15.5531 7.58555 15.2541L10.5002 13.2126C10.9513 12.9558 11.3546 12.614 11.6907 12.2038C11.8682 11.9262 11.9748 11.6043 12 11.2697C11.9809 10.7263 11.869 10.1911 11.6699 9.69021L9.12077 1.16442C9.06386 0.888306 8.96103 0.625204 8.8171 0.387505C8.71227 0.252139 8.57682 0.147267 8.42345 0.0827143C8.16718 0.00887493 7.90058 -0.015815 7.63616 0.00980345H4.31717C4.05264 -0.01575 3.78595 0.00955544 3.52987 0.0845072C3.37613 0.14893 3.24057 0.254303 3.13623 0.390494C2.99293 0.628205 2.89102 0.891366 2.83537 1.16741L0.321665 9.70814ZM7.76719 1.81943C7.88575 2.01975 7.96973 2.24096 8.01518 2.47264L10.2039 10.1127C9.38179 9.65959 8.4994 9.34257 7.58723 9.17266L6.16505 4.05695C6.15631 4.02674 6.14088 3.99919 6.12006 3.97661C6.09924 3.95404 6.07362 3.93709 6.04537 3.9272C6.01712 3.91731 5.98705 3.91476 5.95768 3.91976C5.92831 3.92476 5.90049 3.93717 5.87656 3.95595C5.84445 3.98092 5.82094 4.0164 5.80964 4.05695L4.40377 9.17087C3.4873 9.34042 2.6008 9.65869 1.77534 10.1145L3.97301 2.47443C4.018 2.24232 4.10222 2.0208 4.22157 1.82062C4.30861 1.70709 4.42117 1.61871 4.54885 1.56364C4.76397 1.50185 4.98777 1.48161 5.20962 1.50388H6.78026C7.00229 1.48159 7.22629 1.50183 7.44159 1.56364C7.56964 1.61887 7.68244 1.7077 7.76944 1.82182L7.76719 1.81943ZM6.07282 11.0307C6.74961 11.0723 7.42075 10.8787 7.98482 10.4791C8.04893 10.6936 8.07167 10.9196 8.05167 11.1437C8.03166 11.3678 7.96934 11.5852 7.86841 11.7831C7.66093 12.1579 7.35981 12.4642 6.99845 12.6682C6.61943 12.924 6.29327 13.1463 6.29327 13.7362C6.29279 13.9254 6.33299 14.1122 6.4108 14.2824C6.1552 14.1696 5.93679 13.9788 5.78315 13.7342C5.62951 13.4895 5.54754 13.202 5.54759 12.9078V12.8714C5.54759 12.4632 5.54759 11.9606 5.00661 11.9606C4.93119 11.9606 4.8565 11.9762 4.78673 12.0066C4.64633 12.0684 4.5347 12.1868 4.47631 12.3359C4.44732 12.41 4.43222 12.4894 4.43189 12.5696C4.06109 12.1392 3.86191 11.5728 3.87628 10.9895C3.87365 10.737 3.90683 10.4856 3.97469 10.2436C4.19963 10.696 5.05441 11.0325 6.07282 11.0325V11.0307Z" fill="oklch(69% 0.17 279)"/>
</svg>

